<?xml version="1.0" encoding="UTF-8" standalone="no"?>
<!-- Created with Inkscape (http://www.inkscape.org/) -->

<svg
   version="1.1"
   id="svg1"
   width="129"
   height="230"
   viewBox="0 0 129 230"
   sodipodi:docname="AM PM.svg"
   inkscape:version="1.4.2 (f4327f4, 2025-05-13)"
   inkscape:export-filename="flag.png"
   inkscape:export-xdpi="96"
   inkscape:export-ydpi="96"
   xml:space="preserve"
   xmlns:inkscape="http://www.inkscape.org/namespaces/inkscape"
   xmlns:sodipodi="http://sodipodi.sourceforge.net/DTD/sodipodi-0.dtd"
   xmlns="http://www.w3.org/2000/svg"
   xmlns:svg="http://www.w3.org/2000/svg"><defs
     id="defs1" /><sodipodi:namedview
     id="namedview1"
     pagecolor="#505050"
     bordercolor="#eeeeee"
     borderopacity="1"
     inkscape:showpageshadow="0"
     inkscape:pageopacity="0"
     inkscape:pagecheckerboard="0"
     inkscape:deskcolor="#505050"
     inkscape:zoom="3.464121"
     inkscape:cx="155.73936"
     inkscape:cy="135.53222"
     inkscape:window-width="1920"
     inkscape:window-height="991"
     inkscape:window-x="-9"
     inkscape:window-y="-9"
     inkscape:window-maximized="1"
     inkscape:current-layer="g1" /><g
     inkscape:groupmode="layer"
     inkscape:label="Image"
     id="g1"><rect
       style="fill:none;fill-opacity:1;stroke:#ffffff;stroke-width:3.73273;stroke-linecap:square;stroke-linejoin:miter;stroke-dasharray:none;stroke-opacity:1;paint-order:fill markers stroke"
       id="rect1"
       width="78.085449"
       height="45.486366"
       x="21.048187"
       y="75.043526" /><text
       xml:space="preserve"
       style="font-size:38.6932px;font-family:'0xProto Nerd Font';-inkscape-font-specification:'0xProto Nerd Font, Normal';text-align:start;writing-mode:lr-tb;direction:ltr;text-anchor:start;fill:none;fill-opacity:1;stroke:#ffffff;stroke-width:11.608;stroke-linecap:square;stroke-linejoin:miter;stroke-dasharray:none;stroke-opacity:0.603113;paint-order:fill markers stroke"
       x="37.664726"
       y="111.33311"
       id="text1"><tspan
         sodipodi:role="line"
         id="tspan1"
         x="37.664726"
         y="111.33311"
         style="font-style:normal;font-variant:normal;font-weight:bold;font-stretch:normal;font-family:'NB Architekt Std';-inkscape-font-specification:'NB Architekt Std Bold';fill:#ffffff;fill-opacity:1;stroke:none;stroke-width:11.608">AM</tspan></text><path
       id="rect2"
       style="fill:#ffffff;fill-opacity:1;stroke:none;stroke-width:4.06187;stroke-linecap:square;stroke-linejoin:miter;stroke-dasharray:none;stroke-opacity:0.603113;paint-order:fill markers stroke"
       d="M 18.949219 128.50781 L 18.949219 177.63867 L 101.10938 177.63867 L 101.10938 128.50781 L 18.949219 128.50781 z M 39.591797 140.24023 L 51.400391 140.24023 C 53.270814 140.24023 54.876059 140.90209 56.179688 142.22461 C 57.502209 143.54713 58.164062 145.15301 58.164062 147.02344 L 58.164062 148.94922 C 58.164062 150.81964 57.502209 152.42553 56.179688 153.74805 C 54.876059 155.07057 53.270814 155.73242 51.400391 155.73242 L 43.464844 155.73242 L 43.464844 167.33398 L 39.591797 167.33398 L 39.591797 140.24023 z M 62.017578 140.24023 L 65.890625 140.24023 L 71.275391 148.49609 L 76.736328 140.24023 L 80.589844 140.24023 L 80.589844 167.33398 L 76.736328 167.33398 L 76.736328 147.40039 L 73.449219 152.35156 C 73.316967 152.57828 73.240234 153.049 73.240234 153.74805 L 73.240234 155.73242 L 69.386719 155.73242 L 69.386719 153.74805 C 69.386719 153.03011 69.309987 152.55939 69.177734 152.35156 L 65.890625 147.43945 L 65.890625 167.33398 L 62.017578 167.33398 L 62.017578 140.24023 z M 43.464844 144.07617 L 43.464844 151.85938 L 51.400391 151.85938 C 52.193903 151.85938 52.874611 151.57656 53.441406 151.00977 C 54.027094 150.42408 54.310547 149.74273 54.310547 148.94922 L 54.310547 147.02344 C 54.310547 146.21103 54.027094 145.531 53.441406 144.94531 C 52.874611 144.35962 52.193903 144.07617 51.400391 144.07617 L 43.464844 144.07617 z " /><text
       xml:space="preserve"
       style="font-style:normal;font-variant:normal;font-weight:bold;font-stretch:normal;font-size:13.3333px;font-family:'NB Architekt Std';-inkscape-font-specification:'NB Architekt Std Bold';text-align:start;writing-mode:lr-tb;direction:ltr;text-anchor:start;fill:#ffffff;fill-opacity:1;stroke:none;stroke-width:4;stroke-linecap:square;stroke-linejoin:miter;stroke-dasharray:none;stroke-opacity:0.603113;paint-order:fill markers stroke"
       x="173.42041"
       y="152.68147"
       id="text3"><tspan
         sodipodi:role="line"
         id="tspan3"
         x="173.42041"
         y="152.68147" /></text><rect
       style="fill:none;fill-opacity:1;stroke:#ffffff;stroke-width:3.73273;stroke-linecap:square;stroke-linejoin:miter;stroke-dasharray:none;stroke-opacity:1;paint-order:fill markers stroke"
       id="rect4"
       width="78.085449"
       height="45.486366"
       x="-221.01041"
       y="-175.77231"
       transform="scale(-1)"
       inkscape:export-filename="AM.png"
       inkscape:export-xdpi="96"
       inkscape:export-ydpi="96" /><text
       xml:space="preserve"
       style="font-size:38.6932px;font-family:'0xProto Nerd Font';-inkscape-font-specification:'0xProto Nerd Font, Normal';text-align:start;writing-mode:lr-tb;direction:ltr;text-anchor:start;fill:none;fill-opacity:1;stroke:#ffffff;stroke-width:11.608;stroke-linecap:square;stroke-linejoin:miter;stroke-dasharray:none;stroke-opacity:0.603113;paint-order:fill markers stroke"
       x="159.54149"
       y="166.57552"
       id="text4"><tspan
         sodipodi:role="line"
         id="tspan4"
         x="159.54149"
         y="166.57552"
         style="font-style:normal;font-variant:normal;font-weight:bold;font-stretch:normal;font-family:'NB Architekt Std';-inkscape-font-specification:'NB Architekt Std Bold';fill:#ffffff;fill-opacity:1;stroke:none;stroke-width:11.608">PM</tspan></text><path
       id="rect5"
       style="fill:#ffffff;fill-opacity:1;stroke:none;stroke-width:4.06187;stroke-linecap:square;stroke-linejoin:miter;stroke-dasharray:none;stroke-opacity:0.603113;paint-order:fill markers stroke"
       d="m 140.94922,73.17717 v 49.13086 h 82.16016 V 73.17717 Z m 28.01172,11.73242 h 3.85351 c 0.5479,0 0.96338,0.0949 1.20899,0.30274 0.24561,0.20782 0.51088,0.56669 0.77539,1.0957 l 5.13867,10.84375 c 0.15115,0.34008 0.22656,1.1157 0.22656,2.34375 v 12.50781 h -3.85351 v -5.80078 h -10.84571 v 5.80078 H 161.5918 V 99.49553 c 0,-1.19027 0.076,-1.98478 0.24609,-2.34375 l 5.10156,-10.84375 c 0.45344,-1.03912 0.8879,-1.39844 2.02149,-1.39844 z m 15.05664,0 h 3.87304 l 5.38477,8.25586 5.46094,-8.25586 h 3.85351 v 27.09375 h -3.85351 V 92.06975 l -3.28711,4.95117 c -0.13225,0.22672 -0.20899,0.69744 -0.20899,1.39649 v 1.98437 h -3.85351 v -1.98437 c 0,-0.71794 -0.0767,-1.18866 -0.20899,-1.39649 l -3.28711,-4.91211 v 19.89453 h -3.87304 z m -13.98047,3.83594 -4.57227,9.67188 v 3.91211 h 10.84571 v -3.91211 l -4.45899,-9.67188 z" /></g></svg>
